<svg xmlns='http://www.w3.org/2000/svg' style='font-size:initial;' viewBox="0 0 1120.32 242.28000000000003">
<path d="M16.56,240.12L448.56000000000006,240.12A14.4 14.4 0 0 0 462.96 225.72000000000003L462.96,16.56A14.4 14.4 0 0 0 448.56000000000006 2.160000000000002L16.56,2.160000000000002A14.4 14.4 0 0 0 2.159999999999986 16.56L2.159999999999986,225.72000000000003A14.4 14.4 0 0 0 16.56 240.12Z"  style="fill:rgb(240,240,240);" />
<path d="M563.76,240.12L1103.7600000000002,240.12A14.4 14.4 0 0 0 1118.16 225.72000000000003L1118.16,16.56A14.4 14.4 0 0 0 1103.7600000000002 2.160000000000002L563.76,2.160000000000002A14.4 14.4 0 0 0 549.3599999999999 16.56L549.3599999999999,225.72000000000003A14.4 14.4 0 0 0 563.76 240.12Z"  style="fill:rgb(211,211,211);" />
<text x="19.44" y="45.540000000000006" text-anchor="start" font-family="monospace" fill="rgb(0,0,0)" dominant-baseline="central">oval "Input" fill white</text>
<text x="19.44" y="70.74000000000001" text-anchor="start" font-family="monospace" fill="rgb(0,0,0)" dominant-baseline="central">arrow</text>
<text x="19.44" y="95.94" text-anchor="start" font-family="monospace" fill="rgb(0,0,0)" dominant-baseline="central">box "Process" fill lightgreen</text>
<text x="19.44" y="121.14000000000001" text-anchor="start" font-family="monospace" fill="rgb(0,0,0)" dominant-baseline="central">arrow</text>
<text x="19.44" y="146.34" text-anchor="start" font-family="monospace" fill="rgb(0,0,0)" dominant-baseline="central">oval "Output" same</text>
<text x="19.44" y="171.54000000000002" text-anchor="start" font-family="monospace" fill="rgb(0,0,0)" dominant-baseline="central">arc -&gt; from last oval.n to first oval.n</text>
<text x="19.44" y="196.74" text-anchor="start" font-family="monospace" fill="rgb(0,0,0)" dominant-baseline="central">ellipse at last arc.n fill pink "Adjust" "Weighting"</text>
<path d="M448.56000000000006,92.34 L 516.24,92.34 Q 520.5600000000001,92.34 520.5600000000001,88.02000000000001 L 520.5600000000001,67.86000000000001 Q 520.5600000000001,63.540000000000006 523.152,66.99600000000001 L 561.168,117.684 Q 563.76,121.14000000000001 561.168,124.596 L 523.152,175.284 Q 520.5600000000001,178.74 520.5600000000001,174.42000000000002 L 520.5600000000001,154.26 Q 520.5600000000001,149.94 516.24,149.94 L 452.88,149.94 Q 448.56000000000006,149.94 448.56000000000006,145.62 L 448.56000000000006,96.66 L 448.56000000000006,92.34Z"  style="fill:rgb(160,176,192);" />
<path d="M599.76,225.72000000000003L671.76,225.72000000000003A36 36 0 0 0 707.76 189.72000000000003A36 36 0 0 0 671.76 153.72000000000003L599.76,153.72000000000003A36 36 0 0 0 563.76 189.72000000000003A36 36 0 0 0 599.76 225.72000000000003Z"  style="fill:rgb(255,255,255);stroke-width:2.16;stroke:rgb(0,0,0);" />
<text x="635.76" y="189.72000000000003" text-anchor="middle" fill="rgb(0,0,0)" dominant-baseline="central">Input</text>
<polygon points="779.76,189.72000000000003 768.24,194.04000000000002 768.24,185.4" style="fill:rgb(0,0,0)"/>
<path d="M707.76,189.72000000000003L774,189.72000000000003"  style="fill:none;stroke-width:2.16;stroke:rgb(0,0,0);" />
<path d="M779.76,225.72000000000003L887.76,225.72000000000003L887.76,153.72000000000003L779.76,153.72000000000003Z"  style="fill:rgb(144,238,144);stroke-width:2.16;stroke:rgb(0,0,0);" />
<text x="833.76" y="189.72000000000003" text-anchor="middle" fill="rgb(0,0,0)" dominant-baseline="central">Process</text>
<polygon points="959.76,189.72000000000003 948.24,194.04000000000002 948.24,185.4" style="fill:rgb(0,0,0)"/>
<path d="M887.76,189.72000000000003L954,189.72000000000003"  style="fill:none;stroke-width:2.16;stroke:rgb(0,0,0);" />
<path d="M995.76,225.72000000000003L1067.76,225.72000000000003A36 36 0 0 0 1103.76 189.72000000000003A36 36 0 0 0 1067.76 153.72000000000003L995.76,153.72000000000003A36 36 0 0 0 959.76 189.72000000000003A36 36 0 0 0 995.76 225.72000000000003Z"  style="fill:rgb(255,255,255);stroke-width:2.16;stroke:rgb(0,0,0);" />
<text x="1031.76" y="189.72000000000003" text-anchor="middle" fill="rgb(0,0,0)" dominant-baseline="central">Output</text>
<polygon points="635.76,153.72000000000003 640.8511688245432,142.5194285860051 646.9605714139949,148.6288311754569" style="fill:rgb(0,0,0)"/>
<path d="M1031.76,153.72000000000003Q833.76,-44.27999999999999 639.8329350596346,149.64706494036548"  style="fill:none;stroke-width:2.16;stroke:rgb(0,0,0);" />
<ellipse cx="833.76" cy="52.56" rx="54" ry="36"  style="fill:rgb(255,192,203);stroke-width:2.16;stroke:rgb(0,0,0);" />
<text x="833.76" y="42.47999999999999" text-anchor="middle" fill="rgb(0,0,0)" dominant-baseline="central">Adjust</text>
<text x="833.76" y="62.64" text-anchor="middle" fill="rgb(0,0,0)" dominant-baseline="central">Weighting</text>
</svg>
